<?xml version="1.0" standalone="no"?>
<!DOCTYPE svg PUBLIC "-//W3C//DTD SVG 20010904//EN"
 "http://www.w3.org/TR/2001/REC-SVG-20010904/DTD/svg10.dtd">
<svg version="1.0" xmlns="http://www.w3.org/2000/svg"
 width="1024.000000pt" height="1024.000000pt" viewBox="0 0 1024.000000 1024.000000"
 preserveAspectRatio="xMidYMid meet">
<metadata>
Created by potrace 1.10, written by Peter Selinger 2001-2011
</metadata>
<g transform="translate(0.000000,1024.000000) scale(0.100000,-0.100000)"
fill="#000000" stroke="none">
<path d="M2064 9340 c-542 -35 -1025 -224 -1344 -527 -57 -54 -130 -134 -162
-177 -78 -104 -152 -257 -185 -381 -23 -87 -26 -120 -27 -255 0 -128 4 -171
22 -243 98 -394 383 -711 827 -923 359 -171 820 -256 1226 -225 362 27 625 97
924 246 187 93 309 180 446 315 160 158 254 305 312 485 44 136 52 192 51 350
-1 191 -27 296 -114 470 -102 203 -241 354 -469 507 -392 262 -945 394 -1507
358z m561 -114 c230 -34 477 -104 645 -184 l85 -40 -1100 -1 c-1091 0 -1100 0
-1065 19 46 25 224 96 303 120 158 48 337 83 517 100 130 12 493 4 615 -14z
m-1698 -413 c-4 -3 -10 -3 -14 0 -3 4 0 7 7 7 7 0 10 -3 7 -7z m953 -4 c-232
-148 -284 -168 -387 -150 -32 6 -170 41 -308 79 l-250 67 475 5 c261 3 477 6
480 7 3 1 -2 -3 -10 -8z m631 -15 c29 -9 98 -38 151 -65 54 -27 133 -61 175
-76 70 -25 91 -27 213 -27 152 0 276 23 513 95 72 21 139 37 148 34 17 -6 92
-88 157 -172 46 -59 118 -198 147 -284 14 -40 24 -73 22 -75 -1 -1 -128 -32
-282 -69 -155 -37 -343 -90 -420 -117 -197 -71 -186 -71 -271 4 -393 349 -504
436 -637 499 -111 52 -189 36 -350 -73 -82 -55 -135 -78 -187 -78 -59 0 -120
17 -127 36 -7 18 124 155 222 233 154 123 374 180 526 135z m1088 12 c-8 -8
-274 -75 -354 -90 -209 -38 -313 -28 -476 45 -52 23 -96 43 -98 45 -2 2 206 4
464 4 258 0 466 -2 464 -4z m-2622 -87 c87 -22 230 -61 318 -85 290 -81 333
-79 499 25 93 59 154 91 171 91 2 0 -43 -46 -99 -102 -160 -160 -189 -211
-150 -266 22 -32 66 -51 133 -58 89 -10 116 -1 262 86 73 44 150 85 170 90 52
14 94 -2 215 -82 112 -74 440 -343 557 -458 65 -64 77 -81 77 -109 0 -49 -55
-101 -106 -101 -39 0 -77 28 -320 232 -75 63 -115 81 -128 60 -5 -9 134 -149
272 -272 84 -76 91 -102 43 -151 -24 -23 -38 -29 -74 -29 -56 0 -120 41 -264
169 -99 89 -143 111 -143 74 0 -19 166 -183 238 -236 55 -40 64 -72 28 -103
-14 -13 -44 -29 -66 -35 -36 -11 -43 -10 -81 15 -22 15 -81 63 -129 107 -85
76 -130 98 -130 63 0 -8 43 -56 95 -106 52 -50 95 -98 95 -108 0 -30 -54 -45
-114 -33 -86 18 -129 40 -121 60 14 35 17 111 6 146 -15 45 -68 92 -120 108
-33 10 -40 16 -44 45 -14 82 -80 128 -181 123 -56 -3 -65 -1 -91 24 -50 46
-121 58 -194 32 -39 -14 -43 -13 -78 10 -38 27 -108 34 -143 15 -15 -8 -35 -3
-89 25 -128 64 -291 110 -645 179 -98 20 -181 38 -183 40 -8 8 28 119 63 194
18 40 55 106 81 145 54 81 178 217 199 217 7 0 84 -18 171 -41z m510 -828 c17
-11 34 -29 38 -40 9 -28 31 -26 67 4 22 19 41 25 75 25 38 0 50 -5 79 -34 19
-19 34 -41 34 -50 0 -22 29 -20 65 4 36 24 66 25 104 5 41 -21 57 -66 42 -117
-15 -49 -4 -61 41 -46 56 20 120 -18 137 -80 29 -104 -70 -196 -173 -162 -41
13 -54 27 -71 77 -13 38 -14 38 -63 35 -79 -6 -122 37 -122 119 0 35 -3 35
-39 8 -29 -21 -70 -27 -109 -15 -27 9 -52 54 -52 96 0 37 -21 48 -52 26 -48
-34 -111 -15 -134 39 -17 41 -7 73 32 104 33 26 60 27 101 2z m-237 -6 c27
-14 30 -21 30 -61 0 -51 11 -76 48 -116 l26 -28 -431 0 -430 0 -13 43 c-12 40
-39 154 -40 170 0 4 176 7 390 7 331 0 396 -2 420 -15z m2805 -22 c-4 -21 -16
-71 -27 -110 l-21 -73 -471 -2 c-259 -2 -472 -2 -474 -2 -2 1 14 10 34 20 60
30 97 84 102 149 l4 55 430 0 429 0 -6 -37z m-2292 -408 c20 -8 48 -15 63 -15
19 0 37 -12 62 -40 45 -54 85 -73 152 -74 40 0 66 6 97 23 l42 24 80 -26 c44
-15 101 -27 126 -27 47 0 122 31 131 54 3 8 25 12 67 12 66 0 105 15 153 59
l27 25 563 0 c310 0 564 -3 564 -7 0 -11 -75 -105 -132 -165 l-54 -58 -1454 0
-1454 0 -51 53 c-60 62 -135 155 -135 168 0 5 230 9 559 9 474 0 564 -2 594
-15z m1647 -420 c0 -17 -283 -139 -423 -181 -243 -74 -429 -99 -722 -99 -303
0 -485 24 -734 96 -157 46 -431 160 -431 180 0 5 520 9 1155 9 635 0 1155 -2
1155 -5z"/>
</g>
</svg>
