<?xml version="1.0" ?>
<svg xmlns="http://www.w3.org/2000/svg" width="816.0" height="2112.0" viewBox="0.0 0.0 816.0 2112.0">
	<path id="path26" d="M 303.4450313125,491.6612329271 L 303.4450313125,489.3371703021 L 491.30737991670003,489.3371703021 L 491.30737991670003,491.6612329271 Z" style="fill:#f5f5dc;fill-opacity:1;fill-rule:evenodd;stroke:#000000;stroke-width:0.005"/>
	<path id="path31" d="M 296.85956745830003,312.22314652600005 L 296.85956745830003,309.89908390100004 L 499.828323125,309.89908390100004 L 499.828323125,312.22314652600005 Z" style="fill:#f5f5dc;fill-opacity:1;fill-rule:evenodd;stroke:#000000;stroke-width:0.005"/>
	<path id="path36" d="M 303.4450313125,314.54720915100006 L 303.4450313125,312.22314652600005 L 491.30737991670003,312.22314652600005 L 491.30737991670003,314.54720915100006 Z" style="fill:#f5f5dc;fill-opacity:1;fill-rule:evenodd;stroke:#000000;stroke-width:0.005"/>
	<path id="path45" d="M 311.19624497940003,489.3371703021 L 311.19624497940003,314.54720915100006 L 313.5203076044,314.54720915100006 L 313.5203076044,489.3371703021 Z" style="fill:#f5f5dc;fill-opacity:1;fill-rule:evenodd;stroke:#000000;stroke-width:0.005"/>
	<path id="path50" d="M 476.9799986461,489.3371703021 L 476.9799986461,314.54720915100006 L 479.3040612711,314.54720915100006 L 479.3040612711,489.3371703021 Z" style="fill:#f5f5dc;fill-opacity:1;fill-rule:evenodd;stroke:#000000;stroke-width:0.005"/>
	<path id="path55" d="M 313.5203076044,489.3371703021 L 313.5203076044,331.9776788385 L 315.8443702294,331.9776788385 L 315.8443702294,489.3371703021 Z" style="fill:#f5f5dc;fill-opacity:1;fill-rule:evenodd;stroke:#000000;stroke-width:0.005"/>
	<path id="path60" d="M 315.8443702294,489.3371703021 L 315.8443702294,331.9776788385 L 318.1684328544,331.9776788385 L 318.1684328544,489.3371703021 Z" style="fill:#f5f5dc;fill-opacity:1;fill-rule:evenodd;stroke:#000000;stroke-width:0.005"/>
	<path id="path65" d="M 472.33187339610004,489.3371703021 L 472.33187339610004,331.9776788385 L 474.65593602110005,331.9776788385 L 474.65593602110005,489.3371703021 Z" style="fill:#f5f5dc;fill-opacity:1;fill-rule:evenodd;stroke:#000000;stroke-width:0.005"/>
	<path id="path70" d="M 474.65593602110005,489.3371703021 L 474.65593602110005,331.9776788385 L 476.9799986461,331.9776788385 L 476.9799986461,489.3371703021 Z" style="fill:#f5f5dc;fill-opacity:1;fill-rule:evenodd;stroke:#000000;stroke-width:0.005"/>
	<path id="path75" d="M 313.5203076044,331.9776788385 L 313.5203076044,314.54720915100006 L 476.9799986461,314.54720915100006 L 476.9799986461,331.9776788385 Z" style="fill:#f5f5dc;fill-opacity:1;fill-rule:evenodd;stroke:#000000;stroke-width:0.005"/>
	<path id="path80" d="M 313.5203076044,331.9776788385 L 313.5203076044,314.54720915100006 L 476.9799986461,314.54720915100006 L 476.9799986461,331.9776788385 Z" style="fill:#f5f5dc;fill-opacity:1;fill-rule:evenodd;stroke:#000000;stroke-width:0.005"/>
	<path id="path85" d="M 318.1684328544,392.4033070885 L 318.1684328544,390.0792444635 L 472.33187339610004,390.0792444635 L 472.33187339610004,392.4033070885 Z" style="fill:#f5f5dc;fill-opacity:1;fill-rule:evenodd;stroke:#000000;stroke-width:0.005"/>
	<path id="path90" d="M 318.1684328544,390.0792444635 L 318.1684328544,331.9776788385 L 320.4924954794,331.9776788385 L 320.4924954794,390.0792444635 Z" style="fill:#f5f5dc;fill-opacity:1;fill-rule:evenodd;stroke:#000000;stroke-width:0.005"/>
	<path id="path95" d="M 470.0078107711,390.0792444635 L 470.0078107711,331.9776788385 L 472.33187339610004,331.9776788385 L 472.33187339610004,390.0792444635 Z" style="fill:#f5f5dc;fill-opacity:1;fill-rule:evenodd;stroke:#000000;stroke-width:0.005"/>
	<path id="path100" d="M 451.41530977110006,390.0792444635 L 451.41530977110006,331.9776788385 L 453.7393723961,331.9776788385 L 453.7393723961,390.0792444635 Z" style="fill:#f5f5dc;fill-opacity:1;fill-rule:evenodd;stroke:#000000;stroke-width:0.005"/>
	<path id="path105" d="M 426.6259281878,390.0792444635 L 426.6259281878,331.9776788385 L 428.9499908128,331.9776788385 L 428.9499908128,390.0792444635 Z" style="fill:#f5f5dc;fill-opacity:1;fill-rule:evenodd;stroke:#000000;stroke-width:0.005"/>
	<path id="path110" d="M 401.8346873544,390.0792444635 L 401.8346873544,331.9776788385 L 404.1587499794,331.9776788385 L 404.1587499794,390.0792444635 Z" style="fill:#f5f5dc;fill-opacity:1;fill-rule:evenodd;stroke:#000000;stroke-width:0.005"/>
	<path id="path115" d="M 377.0453057711,390.0792444635 L 377.0453057711,331.9776788385 L 379.3693683961,331.9776788385 L 379.3693683961,390.0792444635 Z" style="fill:#f5f5dc;fill-opacity:1;fill-rule:evenodd;stroke:#000000;stroke-width:0.005"/>
	<path id="path120" d="M 352.2559241878,390.0792444635 L 352.2559241878,331.9776788385 L 354.57998681280003,331.9776788385 L 354.57998681280003,390.0792444635 Z" style="fill:#f5f5dc;fill-opacity:1;fill-rule:evenodd;stroke:#000000;stroke-width:0.005"/>
	<path id="path125" d="M 327.4646833544,390.0792444635 L 327.4646833544,331.9776788385 L 329.7887459794,331.9776788385 L 329.7887459794,390.0792444635 Z" style="fill:#f5f5dc;fill-opacity:1;fill-rule:evenodd;stroke:#000000;stroke-width:0.005"/>
	<path id="path144" d="M 302.283,584.882173691 L 491.30737991670003,584.882173691 L 491.30737991670003,593.4031168993 L 302.283,593.4031168993 Z" style="fill:#f5f5dc;fill-opacity:1;fill-rule:evenodd;stroke:#000000;stroke-width:0.005"/>
	<path id="path149" d="M 302.283,584.882173691 L 303.4450313125,584.882173691 L 303.4450313125,593.4031168993 L 302.283,593.4031168993 Z" style="fill:#6495ed;fill-opacity:1;fill-rule:evenodd;stroke:#000000;stroke-width:0.005"/>
	<path id="path156" d="M 318.1684328544,584.882173691 L 318.1684328544,593.4031168993 L 320.4924954794,593.4031168993 L 320.4924954794,584.882173691 Z" style="fill:#90ee90;fill-opacity:1;fill-rule:evenodd;stroke:#000000;stroke-width:0.005"/>
	<path id="path161" d="M 470.0078107711,584.882173691 L 470.0078107711,593.4031168993 L 472.33187339610004,593.4031168993 L 472.33187339610004,584.882173691 Z" style="fill:#90ee90;fill-opacity:1;fill-rule:evenodd;stroke:#000000;stroke-width:0.005"/>
	<path id="path166" d="M 451.41530977110006,584.882173691 L 451.41530977110006,593.4031168993 L 453.7393723961,593.4031168993 L 453.7393723961,584.882173691 Z" style="fill:#90ee90;fill-opacity:1;fill-rule:evenodd;stroke:#000000;stroke-width:0.005"/>
	<path id="path171" d="M 426.6259281878,584.882173691 L 426.6259281878,593.4031168993 L 428.9499908128,593.4031168993 L 428.9499908128,584.882173691 Z" style="fill:#90ee90;fill-opacity:1;fill-rule:evenodd;stroke:#000000;stroke-width:0.005"/>
	<path id="path176" d="M 401.8346873544,584.882173691 L 401.8346873544,593.4031168993 L 404.1587499794,593.4031168993 L 404.1587499794,584.882173691 Z" style="fill:#90ee90;fill-opacity:1;fill-rule:evenodd;stroke:#000000;stroke-width:0.005"/>
	<path id="path181" d="M 377.0453057711,584.882173691 L 377.0453057711,593.4031168993 L 379.3693683961,593.4031168993 L 379.3693683961,584.882173691 Z" style="fill:#90ee90;fill-opacity:1;fill-rule:evenodd;stroke:#000000;stroke-width:0.005"/>
	<path id="path186" d="M 352.2559241878,584.882173691 L 352.2559241878,593.4031168993 L 354.57998681280003,593.4031168993 L 354.57998681280003,584.882173691 Z" style="fill:#90ee90;fill-opacity:1;fill-rule:evenodd;stroke:#000000;stroke-width:0.005"/>
	<path id="path191" d="M 327.4646833544,584.882173691 L 327.4646833544,593.4031168993 L 329.7887459794,593.4031168993 L 329.7887459794,584.882173691 Z" style="fill:#90ee90;fill-opacity:1;fill-rule:evenodd;stroke:#000000;stroke-width:0.005"/>
	<path id="path196" d="M 311.19624497940003,584.882173691 L 311.19624497940003,593.4031168993 L 313.5203076044,593.4031168993 L 313.5203076044,584.882173691 Z" style="fill:#90ee90;fill-opacity:1;fill-rule:evenodd;stroke:#000000;stroke-width:0.005"/>
	<path id="path203" d="M 476.9799986461,584.882173691 L 476.9799986461,593.4031168993 L 479.3040612711,593.4031168993 L 479.3040612711,584.882173691 Z" style="fill:#90ee90;fill-opacity:1;fill-rule:evenodd;stroke:#000000;stroke-width:0.005"/>
	<path id="path210" d="M 313.5203076044,584.882173691 L 313.5203076044,593.4031168993 L 315.8443702294,593.4031168993 L 315.8443702294,584.882173691 Z" style="fill:#90ee90;fill-opacity:1;fill-rule:evenodd;stroke:#000000;stroke-width:0.005"/>
	<path id="path216" d="M 315.8443702294,584.882173691 L 315.8443702294,593.4031168993 L 318.1684328544,593.4031168993 L 318.1684328544,584.882173691 Z" style="fill:#90ee90;fill-opacity:1;fill-rule:evenodd;stroke:#000000;stroke-width:0.005"/>
	<path id="path222" d="M 472.33187339610004,584.882173691 L 472.33187339610004,593.4031168993 L 474.65593602110005,593.4031168993 L 474.65593602110005,584.882173691 Z" style="fill:#90ee90;fill-opacity:1;fill-rule:evenodd;stroke:#000000;stroke-width:0.005"/>
	<path id="path228" d="M 474.65593602110005,584.882173691 L 474.65593602110005,593.4031168993 L 476.9799986461,593.4031168993 L 476.9799986461,584.882173691 Z" style="fill:#90ee90;fill-opacity:1;fill-rule:evenodd;stroke:#000000;stroke-width:0.005"/>
	<path id="path234" d="M 303.4450313125,584.882173691 L 303.4450313125,593.4031168993 L 305.76909393750003,593.4031168993 L 305.76909393750003,584.882173691 Z" style="fill:#90ee90;fill-opacity:1;fill-rule:evenodd;stroke:#000000;stroke-width:0.005"/>
	<path id="path241" d="M 488.9833172917,584.882173691 L 488.9833172917,593.4031168993 L 491.30737991670003,593.4031168993 L 491.30737991670003,584.882173691 Z" style="fill:#90ee90;fill-opacity:1;fill-rule:evenodd;stroke:#000000;stroke-width:0.005"/>
	<path id="path248" d="M 296.85956745830003,598.0512421493 L 296.85956745830003,584.882173691 L 302.283,584.882173691 L 302.283,598.0512421493 Z" style="fill:#f5f5dc;fill-opacity:1;fill-rule:evenodd;stroke:#000000;stroke-width:0.005"/>
	<path id="path253" d="M 499.828323125,584.882173691 L 499.828323125,598.0512421493 L 491.30737991670003,598.0512421493 L 491.30737991670003,584.882173691 Z" style="fill:#f5f5dc;fill-opacity:1;fill-rule:evenodd;stroke:#000000;stroke-width:0.005"/>
	<path id="path274" d="M 303.4450313125,489.3371703021 L 303.4450313125,314.54720915100006 L 305.76909393750003,314.54720915100006 L 305.76909393750003,489.3371703021 Z" style="fill:#f5f5dc;fill-opacity:1;fill-rule:evenodd;stroke:#000000;stroke-width:0.005"/>
	<path id="path279" d="M 488.9833172917,489.3371703021 L 488.9833172917,314.54720915100006 L 491.30737991670003,314.54720915100006 L 491.30737991670003,489.3371703021 Z" style="fill:#f5f5dc;fill-opacity:1;fill-rule:evenodd;stroke:#000000;stroke-width:0.005"/>
	<path id="path347" d="M 313.5203076044,584.882173691 L 313.5203076044,587.2062363160001 L 476.9799986461,587.2062363160001 L 476.9799986461,584.882173691 Z" style="fill:#228b22;fill-opacity:0.33333;fill-rule:evenodd;stroke:#000000;stroke-width:0.005"/>
	<path id="path352" d="M 313.5203076044,587.2062363160001 L 313.5203076044,589.530298941 L 476.9799986461,589.530298941 L 476.9799986461,587.2062363160001 Z" style="fill:#228b22;fill-opacity:0.33333;fill-rule:evenodd;stroke:#000000;stroke-width:0.005"/>
	<path id="path288" d="M 296.0861194167,491.6612329271 L 318.1684328544,324.3287239271 Z" style="fill:none;stroke:#000000;stroke-width:0.027;stroke-linecap:butt;stroke-linejoin:miter;stroke-miterlimit:10;stroke-dasharray:none;stroke-opacity:1"/>
	<path id="path297" d="M 296.0861194167,324.3287239271 L 318.1684328544,311.6430604948 Z" style="fill:none;stroke:#000000;stroke-width:0.027;stroke-linecap:butt;stroke-linejoin:miter;stroke-miterlimit:10;stroke-dasharray:none;stroke-opacity:1"/>
	<path id="path306" d="M 472.33187339610004,491.6612329271 L 500.6036304167,324.3287239271 Z" style="fill:none;stroke:#000000;stroke-width:0.027;stroke-linecap:butt;stroke-linejoin:miter;stroke-miterlimit:10;stroke-dasharray:none;stroke-opacity:1"/>
	<path id="path315" d="M 472.33187339610004,324.3287239271 L 500.6036304167,311.6430604948 Z" style="fill:none;stroke:#000000;stroke-width:0.027;stroke-linecap:butt;stroke-linejoin:miter;stroke-miterlimit:10;stroke-dasharray:none;stroke-opacity:1"/>
	<path id="path324" d="M 402.9967186669,392.4033070885 L 472.33187339610004,311.6430604948 Z" style="fill:none;stroke:#000000;stroke-width:0.027;stroke-linecap:butt;stroke-linejoin:miter;stroke-miterlimit:10;stroke-dasharray:none;stroke-opacity:1"/>
	<path id="path333" d="M 328.6267146669,392.4033070885 L 402.9967186669,311.6430604948 Z" style="fill:none;stroke:#000000;stroke-width:0.027;stroke-linecap:butt;stroke-linejoin:miter;stroke-miterlimit:10;stroke-dasharray:none;stroke-opacity:1"/>
	<path id="path342" d="M 318.1684328544,392.4033070885 L 328.6267146669,311.6430604948 Z" style="fill:none;stroke:#000000;stroke-width:0.027;stroke-linecap:butt;stroke-linejoin:miter;stroke-miterlimit:10;stroke-dasharray:none;stroke-opacity:1"/>
</svg>
