<?xml version="1.0" ?>
<svg xmlns="http://www.w3.org/2000/svg" width="816.0" height="1056.0" viewBox="0.0 0.0 816.0 1056.0">
	<path id="path25" d="M 346.37399,496.94701 L 346.37399,494.365572375 L 434.14286925,494.365572375 L 434.14286925,496.94701 Z" style="fill:#f5f5dc;fill-opacity:1;fill-rule:evenodd;stroke:#000000;stroke-width:0.005"/>
	<path id="path30" d="M 387.676992,311.7278278312 L 387.676992,309.14639020619995 L 424.6762211916,309.14639020619995 L 424.6762211916,311.7278278312 Z" style="fill:#f5f5dc;fill-opacity:1;fill-rule:evenodd;stroke:#000000;stroke-width:0.005"/>
	<path id="path35" d="M 346.37399,314.3092654562 L 346.37399,311.7278278312 L 434.14286925,311.7278278312 L 434.14286925,314.3092654562 Z" style="fill:#f5f5dc;fill-opacity:1;fill-rule:evenodd;stroke:#000000;stroke-width:0.005"/>
	<path id="path40" d="M 346.37399,577.9752393236 L 434.14286925,577.9752393236 L 434.14286925,587.4398222318999 L 346.37399,587.4398222318999 Z" style="fill:#f5f5dc;fill-opacity:1;fill-rule:evenodd;stroke:#000000;stroke-width:0.005"/>
	<path id="path45" d="M 346.37399,577.9752393236 L 346.37399,577.9752393236 L 346.37399,587.4398222318999 L 346.37399,587.4398222318999 Z" style="fill:#6495ed;fill-opacity:1;fill-rule:evenodd;stroke:#000000;stroke-width:0.005"/>
	<path id="path48" d="M 434.14286925,577.9752393236 L 434.14286925,577.9752393236 L 434.14286925,587.4398222318999 L 434.14286925,587.4398222318999 Z" style="fill:#6495ed;fill-opacity:1;fill-rule:evenodd;stroke:#000000;stroke-width:0.005"/>
	<path id="path51" d="M 431.561431625,577.9752393236 L 431.561431625,587.4398222318999 L 434.14286925,587.4398222318999 L 434.14286925,577.9752393236 Z" style="fill:#90ee90;fill-opacity:1;fill-rule:evenodd;stroke:#000000;stroke-width:0.005"/>
	<path id="path58" d="M 422.0947835666,577.9752393236 L 422.0947835666,580.5566769485999 L 431.561431625,580.5566769485999 L 431.561431625,577.9752393236 Z" style="fill:#90ee90;fill-opacity:1;fill-rule:evenodd;stroke:#000000;stroke-width:0.005"/>
	<path id="path65" d="M 346.37399,577.9752393236 L 346.37399,587.4398222318999 L 348.95542762499997,587.4398222318999 L 348.95542762499997,577.9752393236 Z" style="fill:#90ee90;fill-opacity:1;fill-rule:evenodd;stroke:#000000;stroke-width:0.005"/>
	<path id="path72" d="M 406.17660659579997,577.9752393236 L 406.17660659579997,587.4398222318999 L 408.7580442208,587.4398222318999 L 408.7580442208,577.9752393236 Z" style="fill:#90ee90;fill-opacity:1;fill-rule:evenodd;stroke:#000000;stroke-width:0.005"/>
	<path id="path79" d="M 378.6419603125,577.9752393236 L 378.6419603125,587.4398222318999 L 381.2233979375,587.4398222318999 L 381.2233979375,577.9752393236 Z" style="fill:#90ee90;fill-opacity:1;fill-rule:evenodd;stroke:#000000;stroke-width:0.005"/>
	<path id="path86" d="M 351.1052488791,577.9752393236 L 351.1052488791,587.4398222318999 L 353.6866865041,587.4398222318999 L 353.6866865041,577.9752393236 Z" style="fill:#90ee90;fill-opacity:1;fill-rule:evenodd;stroke:#000000;stroke-width:0.005"/>
	<path id="path93" d="M 434.14286925,572.8123640736 L 434.14286925,577.9752393236 L 424.6762211916,577.9752393236 L 424.6762211916,572.8123640736 Z" style="fill:#f5f5dc;fill-opacity:1;fill-rule:evenodd;stroke:#000000;stroke-width:0.005"/>
	<path id="path104" d="M 431.561431625,494.365572375 L 431.561431625,314.3092654562 L 434.14286925,314.3092654562 L 434.14286925,494.365572375 Z" style="fill:#f5f5dc;fill-opacity:1;fill-rule:evenodd;stroke:#000000;stroke-width:0.005"/>
	<path id="path109" d="M 422.0947835666,494.365572375 L 422.0947835666,314.3092654562 L 431.561431625,314.3092654562 L 431.561431625,494.365572375 Z" style="fill:#f5f5dc;fill-opacity:1;fill-rule:evenodd;stroke:#000000;stroke-width:0.005"/>
	<path id="path114" d="M 346.37399,494.365572375 L 346.37399,314.3092654562 L 348.95542762499997,314.3092654562 L 348.95542762499997,494.365572375 Z" style="fill:#f5f5dc;fill-opacity:1;fill-rule:evenodd;stroke:#000000;stroke-width:0.005"/>
	<path id="path119" d="M 406.17660659579997,494.365572375 L 406.17660659579997,314.3092654562 L 408.7580442208,314.3092654562 L 408.7580442208,494.365572375 Z" style="fill:#f5f5dc;fill-opacity:1;fill-rule:evenodd;stroke:#000000;stroke-width:0.005"/>
	<path id="path124" d="M 378.6419603125,494.365572375 L 378.6419603125,314.3092654562 L 381.2233979375,314.3092654562 L 381.2233979375,494.365572375 Z" style="fill:#f5f5dc;fill-opacity:1;fill-rule:evenodd;stroke:#000000;stroke-width:0.005"/>
	<path id="path129" d="M 351.1052488791,494.365572375 L 351.1052488791,314.3092654562 L 353.6866865041,314.3092654562 L 353.6866865041,494.365572375 Z" style="fill:#f5f5dc;fill-opacity:1;fill-rule:evenodd;stroke:#000000;stroke-width:0.005"/>
	<path id="path138" d="M 346.37399,496.94701 L 424.6762211916,311.08350099999996 Z" style="fill:none;stroke:#000000;stroke-width:0.024;stroke-linecap:butt;stroke-linejoin:miter;stroke-miterlimit:10;stroke-dasharray:none;stroke-opacity:1"/>
</svg>
