<?xml version="1.0" ?>
<svg xmlns="http://www.w3.org/2000/svg" width="816.0" height="1056.0" viewBox="0.0 0.0 816.0 1056.0">
	<path id="path24" d="M 372.72,514.88822817 L 372.72,512.08789067 L 435.21009138000005,512.08789067 L 435.21009138000005,514.88822817 Z" style="fill:#f5f5dc;fill-opacity:1;fill-rule:evenodd;stroke:#000000;stroke-width:0.005"/>
	<path id="path29" d="M 372.72,298.6775302 L 372.72,295.8771927 L 435.21009138000005,295.8771927 L 435.21009138000005,298.6775302 Z" style="fill:#f5f5dc;fill-opacity:1;fill-rule:evenodd;stroke:#000000;stroke-width:0.005"/>
	<path id="path34" d="M 372.72,301.47786770000005 L 372.72,298.6775302 L 435.21009138000005,298.6775302 L 435.21009138000005,301.47786770000005 Z" style="fill:#f5f5dc;fill-opacity:1;fill-rule:evenodd;stroke:#000000;stroke-width:0.005"/>
	<path id="path39" d="M 372.72,573.69531567 L 435.21009138000005,573.69531567 L 435.21009138000005,583.96247308 L 372.72,583.96247308 Z" style="fill:#f5f5dc;fill-opacity:1;fill-rule:evenodd;stroke:#000000;stroke-width:0.005"/>
	<path id="path44" d="M 372.72,573.69531567 L 372.72,573.69531567 L 372.72,583.96247308 L 372.72,583.96247308 Z" style="fill:#6495ed;fill-opacity:1;fill-rule:evenodd;stroke:#000000;stroke-width:0.005"/>
	<path id="path47" d="M 435.21009138000005,573.69531567 L 435.21009138000005,573.69531567 L 435.21009138000005,583.96247308 L 435.21009138000005,583.96247308 Z" style="fill:#6495ed;fill-opacity:1;fill-rule:evenodd;stroke:#000000;stroke-width:0.005"/>
	<path id="path50" d="M 372.72,573.69531567 L 372.72,583.96247308 L 375.52033750000004,583.96247308 L 375.52033750000004,573.69531567 Z" style="fill:#90ee90;fill-opacity:1;fill-rule:evenodd;stroke:#000000;stroke-width:0.005"/>
	<path id="path57" d="M 432.40975388000004,573.69531567 L 432.40975388000004,583.96247308 L 435.21009138000005,583.96247308 L 435.21009138000005,573.69531567 Z" style="fill:#90ee90;fill-opacity:1;fill-rule:evenodd;stroke:#000000;stroke-width:0.005"/>
	<path id="path64" d="M 396.52286875000004,573.69531567 L 396.52286875000004,583.96247308 L 399.32320625,583.96247308 L 399.32320625,573.69531567 Z" style="fill:#90ee90;fill-opacity:1;fill-rule:evenodd;stroke:#000000;stroke-width:0.005"/>
	<path id="path71" d="M 426.39238866000005,573.69531567 L 426.39238866000005,583.96247308 L 429.19272616,583.96247308 L 429.19272616,573.69531567 Z" style="fill:#90ee90;fill-opacity:1;fill-rule:evenodd;stroke:#000000;stroke-width:0.005"/>
	<path id="path82" d="M 372.72,512.08789067 L 372.72,301.47786770000005 L 375.52033750000004,301.47786770000005 L 375.52033750000004,512.08789067 Z" style="fill:#f5f5dc;fill-opacity:1;fill-rule:evenodd;stroke:#000000;stroke-width:0.005"/>
	<path id="path87" d="M 432.40975388000004,512.08789067 L 432.40975388000004,301.47786770000005 L 435.21009138000005,301.47786770000005 L 435.21009138000005,512.08789067 Z" style="fill:#f5f5dc;fill-opacity:1;fill-rule:evenodd;stroke:#000000;stroke-width:0.005"/>
	<path id="path92" d="M 396.52286875000004,512.08789067 L 396.52286875000004,301.47786770000005 L 399.32320625,301.47786770000005 L 399.32320625,512.08789067 Z" style="fill:#f5f5dc;fill-opacity:1;fill-rule:evenodd;stroke:#000000;stroke-width:0.005"/>
	<path id="path97" d="M 426.39238866000005,512.08789067 L 426.39238866000005,301.47786770000005 L 429.19272616,301.47786770000005 L 429.19272616,512.08789067 Z" style="fill:#f5f5dc;fill-opacity:1;fill-rule:evenodd;stroke:#000000;stroke-width:0.005"/>
	<path id="path106" d="M 366.65334884000004,514.88822817 L 435.21009138000005,313.26392817 Z" style="fill:none;stroke:#000000;stroke-width:0.022;stroke-linecap:butt;stroke-linejoin:miter;stroke-miterlimit:10;stroke-dasharray:none;stroke-opacity:1"/>
	<path id="path115" d="M 366.65334884000004,313.26392817 L 435.21009138000005,297.97856595999997 Z" style="fill:none;stroke:#000000;stroke-width:0.022;stroke-linecap:butt;stroke-linejoin:miter;stroke-miterlimit:10;stroke-dasharray:none;stroke-opacity:1"/>
</svg>
