<?xml version="1.0" ?>
<svg xmlns="http://www.w3.org/2000/svg" width="816.0" height="1056.0" viewBox="0.0 0.0 816.0 1056.0">
	<path id="path25" d="M 349.388,516.84111588 L 349.388,514.20326588 L 420.65848644,514.20326588 L 420.65848644,516.84111588 Z" style="fill:#f5f5dc;fill-opacity:1;fill-rule:evenodd;stroke:#000000;stroke-width:0.005"/>
	<path id="path30" d="M 349.388,313.1758828 L 349.388,310.5380328 L 410.9870732,310.5380328 L 410.9870732,313.1758828 Z" style="fill:#f5f5dc;fill-opacity:1;fill-rule:evenodd;stroke:#000000;stroke-width:0.005"/>
	<path id="path35" d="M 349.388,315.8137328 L 349.388,313.1758828 L 420.65848644,313.1758828 L 420.65848644,315.8137328 Z" style="fill:#f5f5dc;fill-opacity:1;fill-rule:evenodd;stroke:#000000;stroke-width:0.005"/>
	<path id="path40" d="M 349.388,581.02950264 L 420.65848644,581.02950264 L 420.65848644,587.18307912 L 349.388,587.18307912 Z" style="fill:#f5f5dc;fill-opacity:1;fill-rule:evenodd;stroke:#000000;stroke-width:0.005"/>
	<path id="path49" d="M 418.02063644,581.02950264 L 418.02063644,587.18307912 L 420.65848644,587.18307912 L 420.65848644,581.02950264 Z" style="fill:#90ee90;fill-opacity:1;fill-rule:evenodd;stroke:#000000;stroke-width:0.005"/>
	<path id="path56" d="M 408.3492232,584.54522912 L 408.3492232,587.18307912 L 418.02063644,587.18307912 L 418.02063644,584.54522912 Z" style="fill:#90ee90;fill-opacity:1;fill-rule:evenodd;stroke:#000000;stroke-width:0.005"/>
	<path id="path63" d="M 349.388,581.02950264 L 349.388,587.18307912 L 352.02585,587.18307912 L 352.02585,581.02950264 Z" style="fill:#90ee90;fill-opacity:1;fill-rule:evenodd;stroke:#000000;stroke-width:0.005"/>
	<path id="path70" d="M 397.35677467999994,581.02950264 L 397.35677467999994,587.18307912 L 399.99462467999996,587.18307912 L 399.99462467999996,581.02950264 Z" style="fill:#90ee90;fill-opacity:1;fill-rule:evenodd;stroke:#000000;stroke-width:0.005"/>
	<path id="path77" d="M 369.22041143999996,581.02950264 L 369.22041143999996,587.18307912 L 371.85826144,587.18307912 L 371.85826144,581.02950264 Z" style="fill:#90ee90;fill-opacity:1;fill-rule:evenodd;stroke:#000000;stroke-width:0.005"/>
	<path id="path84" d="M 420.65848644,587.18307912 L 420.65848644,592.45877912 L 410.9870732,592.45877912 L 410.9870732,587.18307912 Z" style="fill:#f5f5dc;fill-opacity:1;fill-rule:evenodd;stroke:#000000;stroke-width:0.005"/>
	<path id="path99" d="M 418.02063644,514.20326588 L 418.02063644,315.8137328 L 420.65848644,315.8137328 L 420.65848644,514.20326588 Z" style="fill:#f5f5dc;fill-opacity:1;fill-rule:evenodd;stroke:#000000;stroke-width:0.005"/>
	<path id="path104" d="M 408.3492232,514.20326588 L 408.3492232,315.8137328 L 418.02063644,315.8137328 L 418.02063644,514.20326588 Z" style="fill:#f5f5dc;fill-opacity:1;fill-rule:evenodd;stroke:#000000;stroke-width:0.005"/>
	<path id="path109" d="M 349.388,514.20326588 L 349.388,315.8137328 L 352.02585,315.8137328 L 352.02585,514.20326588 Z" style="fill:#f5f5dc;fill-opacity:1;fill-rule:evenodd;stroke:#000000;stroke-width:0.005"/>
	<path id="path114" d="M 369.22041143999996,514.20326588 L 369.22041143999996,315.8137328 L 371.85826144,315.8137328 L 371.85826144,514.20326588 Z" style="fill:#f5f5dc;fill-opacity:1;fill-rule:evenodd;stroke:#000000;stroke-width:0.005"/>
	<path id="path119" d="M 397.35677467999994,514.20326588 L 397.35677467999994,315.8137328 L 399.99462467999996,315.8137328 L 399.99462467999996,514.20326588 Z" style="fill:#f5f5dc;fill-opacity:1;fill-rule:evenodd;stroke:#000000;stroke-width:0.005"/>
	<path id="path128" d="M 349.388,516.84111588 L 420.65848644,326.91591588000006 Z" style="fill:none;stroke:#000000;stroke-width:0.024;stroke-linecap:butt;stroke-linejoin:miter;stroke-miterlimit:10;stroke-dasharray:none;stroke-opacity:1"/>
	<path id="path137" d="M 349.388,326.91591588000006 L 420.65848644,312.51747544 Z" style="fill:none;stroke:#000000;stroke-width:0.024;stroke-linecap:butt;stroke-linejoin:miter;stroke-miterlimit:10;stroke-dasharray:none;stroke-opacity:1"/>
</svg>
