<?xml version="1.0" ?>
<svg xmlns="http://www.w3.org/2000/svg" width="816.0" height="2112.0" viewBox="0.0 0.0 816.0 2112.0">
	<path id="path27" d="M 353.85047125,495.48283889 L 353.85047125,493.38387639 L 462.64725389,493.38387639 L 462.64725389,495.48283889 Z" style="fill:#f5f5dc;fill-opacity:1;fill-rule:evenodd;stroke:#000000;stroke-width:0.005"/>
	<path id="path32" d="M 352.80099,323.19160104 L 352.80099,321.09263854000005 L 429.06385389,321.09263854000005 L 429.06385389,323.19160104 Z" style="fill:#f5f5dc;fill-opacity:1;fill-rule:evenodd;stroke:#000000;stroke-width:0.005"/>
	<path id="path37" d="M 353.85047125,325.29056354 L 353.85047125,323.19160104 L 462.64725389,323.19160104 L 462.64725389,325.29056354 Z" style="fill:#f5f5dc;fill-opacity:1;fill-rule:evenodd;stroke:#000000;stroke-width:0.005"/>
	<path id="path46" d="M 359.97272507,493.38387639 L 359.97272507,325.29056354 L 362.07168757,325.29056354 L 362.07168757,493.38387639 Z" style="fill:#f5f5dc;fill-opacity:1;fill-rule:evenodd;stroke:#000000;stroke-width:0.005"/>
	<path id="path51" d="M 419.09294243,493.38387639 L 419.09294243,325.29056354 L 421.19190493,325.29056354 L 421.19190493,493.38387639 Z" style="fill:#f5f5dc;fill-opacity:1;fill-rule:evenodd;stroke:#000000;stroke-width:0.005"/>
	<path id="path56" d="M 362.07168757,493.38387639 L 362.07168757,335.43610868 L 364.17065007,335.43610868 L 364.17065007,493.38387639 Z" style="fill:#f5f5dc;fill-opacity:1;fill-rule:evenodd;stroke:#000000;stroke-width:0.005"/>
	<path id="path61" d="M 364.17065007,493.38387639 L 364.17065007,335.43610868 L 366.26961257,335.43610868 L 366.26961257,493.38387639 Z" style="fill:#f5f5dc;fill-opacity:1;fill-rule:evenodd;stroke:#000000;stroke-width:0.005"/>
	<path id="path66" d="M 414.89501743,493.38387639 L 414.89501743,335.43610868 L 416.99397993,335.43610868 L 416.99397993,493.38387639 Z" style="fill:#f5f5dc;fill-opacity:1;fill-rule:evenodd;stroke:#000000;stroke-width:0.005"/>
	<path id="path71" d="M 416.99397993,493.38387639 L 416.99397993,335.43610868 L 419.09294243,335.43610868 L 419.09294243,493.38387639 Z" style="fill:#f5f5dc;fill-opacity:1;fill-rule:evenodd;stroke:#000000;stroke-width:0.005"/>
	<path id="path76" d="M 362.07168757,335.43610868 L 362.07168757,325.29056354 L 419.09294243,325.29056354 L 419.09294243,335.43610868 Z" style="fill:#f5f5dc;fill-opacity:1;fill-rule:evenodd;stroke:#000000;stroke-width:0.005"/>
	<path id="path81" d="M 362.07168757,335.43610868 L 362.07168757,325.29056354 L 419.09294243,325.29056354 L 419.09294243,335.43610868 Z" style="fill:#f5f5dc;fill-opacity:1;fill-rule:evenodd;stroke:#000000;stroke-width:0.005"/>
	<path id="path86" d="M 366.26961257,379.68895486 L 366.26961257,377.58999236 L 414.89501743,377.58999236 L 414.89501743,379.68895486 Z" style="fill:#f5f5dc;fill-opacity:1;fill-rule:evenodd;stroke:#000000;stroke-width:0.005"/>
	<path id="path91" d="M 366.26961257,377.58999236 L 366.26961257,335.43610868 L 368.36857507,335.43610868 L 368.36857507,377.58999236 Z" style="fill:#f5f5dc;fill-opacity:1;fill-rule:evenodd;stroke:#000000;stroke-width:0.005"/>
	<path id="path96" d="M 412.79605493,377.58999236 L 412.79605493,335.43610868 L 414.89501743,335.43610868 L 414.89501743,377.58999236 Z" style="fill:#f5f5dc;fill-opacity:1;fill-rule:evenodd;stroke:#000000;stroke-width:0.005"/>
	<path id="path101" d="M 399.32743236,377.58999236 L 399.32743236,335.43610868 L 401.42639486,335.43610868 L 401.42639486,377.58999236 Z" style="fill:#f5f5dc;fill-opacity:1;fill-rule:evenodd;stroke:#000000;stroke-width:0.005"/>
	<path id="path106" d="M 376.93905875,377.58999236 L 376.93905875,335.43610868 L 379.03802125,335.43610868 L 379.03802125,377.58999236 Z" style="fill:#f5f5dc;fill-opacity:1;fill-rule:evenodd;stroke:#000000;stroke-width:0.005"/>
	<path id="path125" d="M 352.80099,589.46934213 L 462.64725389,589.46934213 L 462.64725389,597.16497824 L 352.80099,597.16497824 Z" style="fill:#f5f5dc;fill-opacity:1;fill-rule:evenodd;stroke:#000000;stroke-width:0.005"/>
	<path id="path130" d="M 352.80099,589.46934213 L 353.85047125,589.46934213 L 353.85047125,597.16497824 L 352.80099,597.16497824 Z" style="fill:#6495ed;fill-opacity:1;fill-rule:evenodd;stroke:#000000;stroke-width:0.005"/>
	<path id="path135" d="M 462.64725389,589.46934213 L 462.64725389,589.46934213 L 462.64725389,597.16497824 L 462.64725389,597.16497824 Z" style="fill:#6495ed;fill-opacity:1;fill-rule:evenodd;stroke:#000000;stroke-width:0.005"/>
	<path id="path138" d="M 366.26961257,589.46934213 L 366.26961257,597.16497824 L 368.36857507,597.16497824 L 368.36857507,589.46934213 Z" style="fill:#90ee90;fill-opacity:1;fill-rule:evenodd;stroke:#000000;stroke-width:0.005"/>
	<path id="path143" d="M 412.79605493,589.46934213 L 412.79605493,597.16497824 L 414.89501743,597.16497824 L 414.89501743,589.46934213 Z" style="fill:#90ee90;fill-opacity:1;fill-rule:evenodd;stroke:#000000;stroke-width:0.005"/>
	<path id="path148" d="M 399.32743236,589.46934213 L 399.32743236,597.16497824 L 401.42639486,597.16497824 L 401.42639486,589.46934213 Z" style="fill:#90ee90;fill-opacity:1;fill-rule:evenodd;stroke:#000000;stroke-width:0.005"/>
	<path id="path153" d="M 376.93905875,589.46934213 L 376.93905875,597.16497824 L 379.03802125,597.16497824 L 379.03802125,589.46934213 Z" style="fill:#90ee90;fill-opacity:1;fill-rule:evenodd;stroke:#000000;stroke-width:0.005"/>
	<path id="path158" d="M 359.97272507,589.46934213 L 359.97272507,597.16497824 L 362.07168757,597.16497824 L 362.07168757,589.46934213 Z" style="fill:#90ee90;fill-opacity:1;fill-rule:evenodd;stroke:#000000;stroke-width:0.005"/>
	<path id="path165" d="M 419.09294243,589.46934213 L 419.09294243,597.16497824 L 421.19190493,597.16497824 L 421.19190493,589.46934213 Z" style="fill:#90ee90;fill-opacity:1;fill-rule:evenodd;stroke:#000000;stroke-width:0.005"/>
	<path id="path172" d="M 362.07168757,589.46934213 L 362.07168757,597.16497824 L 364.17065007,597.16497824 L 364.17065007,589.46934213 Z" style="fill:#90ee90;fill-opacity:1;fill-rule:evenodd;stroke:#000000;stroke-width:0.005"/>
	<path id="path178" d="M 364.17065007,589.46934213 L 364.17065007,597.16497824 L 366.26961257,597.16497824 L 366.26961257,589.46934213 Z" style="fill:#90ee90;fill-opacity:1;fill-rule:evenodd;stroke:#000000;stroke-width:0.005"/>
	<path id="path184" d="M 414.89501743,589.46934213 L 414.89501743,597.16497824 L 416.99397993,597.16497824 L 416.99397993,589.46934213 Z" style="fill:#90ee90;fill-opacity:1;fill-rule:evenodd;stroke:#000000;stroke-width:0.005"/>
	<path id="path190" d="M 416.99397993,589.46934213 L 416.99397993,597.16497824 L 419.09294243,597.16497824 L 419.09294243,589.46934213 Z" style="fill:#90ee90;fill-opacity:1;fill-rule:evenodd;stroke:#000000;stroke-width:0.005"/>
	<path id="path196" d="M 427.31415875,589.46934213 L 427.31415875,597.16497824 L 429.41312125,597.16497824 L 429.41312125,589.46934213 Z" style="fill:#daa520;fill-opacity:1;fill-rule:evenodd;stroke:#000000;stroke-width:0.005"/>
	<path id="path203" d="M 429.41312125,589.46934213 L 429.41312125,597.16497824 L 431.51208375,597.16497824 L 431.51208375,589.46934213 Z" style="fill:#daa520;fill-opacity:1;fill-rule:evenodd;stroke:#000000;stroke-width:0.005"/>
	<path id="path210" d="M 431.51208375,589.46934213 L 431.51208375,597.16497824 L 433.61104625,597.16497824 L 433.61104625,589.46934213 Z" style="fill:#daa520;fill-opacity:1;fill-rule:evenodd;stroke:#000000;stroke-width:0.005"/>
	<path id="path217" d="M 353.85047125,589.46934213 L 353.85047125,597.16497824 L 355.94943375,597.16497824 L 355.94943375,589.46934213 Z" style="fill:#90ee90;fill-opacity:1;fill-rule:evenodd;stroke:#000000;stroke-width:0.005"/>
	<path id="path224" d="M 460.54829139000003,589.46934213 L 460.54829139000003,597.16497824 L 462.64725389,597.16497824 L 462.64725389,589.46934213 Z" style="fill:#90ee90;fill-opacity:1;fill-rule:evenodd;stroke:#000000;stroke-width:0.005"/>
	<path id="path231" d="M 444.10585875000004,589.46934213 L 444.10585875000004,597.16497824 L 446.20482125,597.16497824 L 446.20482125,589.46934213 Z" style="fill:#90ee90;fill-opacity:1;fill-rule:evenodd;stroke:#000000;stroke-width:0.005"/>
	<path id="path238" d="M 421.71748514,589.46934213 L 421.71748514,597.16497824 L 423.81644764,597.16497824 L 423.81644764,589.46934213 Z" style="fill:#90ee90;fill-opacity:1;fill-rule:evenodd;stroke:#000000;stroke-width:0.005"/>
	<path id="path245" d="M 355.94943375,589.46934213 L 355.94943375,597.16497824 L 358.04839625,597.16497824 L 358.04839625,589.46934213 Z" style="fill:#90ee90;fill-opacity:1;fill-rule:evenodd;stroke:#000000;stroke-width:0.005"/>
	<path id="path252" d="M 362.59558861,597.16497824 L 362.59558861,601.36290324 L 354.89995250000004,601.36290324 L 354.89995250000004,597.16497824 Z" style="fill:#f5f5dc;fill-opacity:1;fill-rule:evenodd;stroke:#000000;stroke-width:0.005"/>
	<path id="path257" d="M 345.10535389,597.16497824 L 345.10535389,589.46934213 L 352.80099,589.46934213 L 352.80099,597.16497824 Z" style="fill:#f5f5dc;fill-opacity:1;fill-rule:evenodd;stroke:#000000;stroke-width:0.005"/>
	<path id="path267" d="M 343.70492611000003,588.07059352 L 343.70492611000003,585.27141713 L 351.40224139000003,585.27141713 L 351.40224139000003,588.07059352 Z" style="fill:#f5f5dc;fill-opacity:1;fill-rule:evenodd;stroke:#000000;stroke-width:0.005"/>
	<path id="path290" d="M 427.31415875,493.38387639 L 427.31415875,325.29056354 L 429.41312125,325.29056354 L 429.41312125,493.38387639 Z" style="fill:#daa520;fill-opacity:1;fill-rule:evenodd;stroke:#000000;stroke-width:0.005"/>
	<path id="path295" d="M 429.41312125,493.38387639 L 429.41312125,325.29056354 L 431.51208375,325.29056354 L 431.51208375,493.38387639 Z" style="fill:#daa520;fill-opacity:1;fill-rule:evenodd;stroke:#000000;stroke-width:0.005"/>
	<path id="path300" d="M 431.51208375,493.38387639 L 431.51208375,325.29056354 L 433.61104625,325.29056354 L 433.61104625,493.38387639 Z" style="fill:#daa520;fill-opacity:1;fill-rule:evenodd;stroke:#000000;stroke-width:0.005"/>
	<path id="path305" d="M 353.85047125,493.38387639 L 353.85047125,325.29056354 L 355.94943375,325.29056354 L 355.94943375,493.38387639 Z" style="fill:#f5f5dc;fill-opacity:1;fill-rule:evenodd;stroke:#000000;stroke-width:0.005"/>
	<path id="path310" d="M 460.54829139000003,493.38387639 L 460.54829139000003,325.29056354 L 462.64725389,325.29056354 L 462.64725389,493.38387639 Z" style="fill:#f5f5dc;fill-opacity:1;fill-rule:evenodd;stroke:#000000;stroke-width:0.005"/>
	<path id="path315" d="M 444.10585875000004,493.38387639 L 444.10585875000004,325.29056354 L 446.20482125,325.29056354 L 446.20482125,493.38387639 Z" style="fill:#f5f5dc;fill-opacity:1;fill-rule:evenodd;stroke:#000000;stroke-width:0.005"/>
	<path id="path320" d="M 421.71748514,493.38387639 L 421.71748514,325.29056354 L 423.81644764,325.29056354 L 423.81644764,493.38387639 Z" style="fill:#f5f5dc;fill-opacity:1;fill-rule:evenodd;stroke:#000000;stroke-width:0.005"/>
	<path id="path325" d="M 355.94943375,493.38387639 L 355.94943375,325.29056354 L 358.04839625,325.29056354 L 358.04839625,493.38387639 Z" style="fill:#ff00ff;fill-opacity:1;fill-rule:evenodd;stroke:#000000;stroke-width:0.005"/>
	<path id="path375" d="M 362.07168757,589.46934213 L 362.07168757,591.56830463 L 419.09294243,591.56830463 L 419.09294243,589.46934213 Z" style="fill:#228b22;fill-opacity:0.33333;fill-rule:evenodd;stroke:#000000;stroke-width:0.005"/>
	<path id="path380" d="M 362.07168757,591.56830463 L 362.07168757,593.66726713 L 419.09294243,593.66726713 L 419.09294243,591.56830463 Z" style="fill:#228b22;fill-opacity:0.33333;fill-rule:evenodd;stroke:#000000;stroke-width:0.005"/>
	<path id="path334" d="M 343.00639139000003,495.48283889 L 366.26961257,344.35753889 Z" style="fill:none;stroke:#000000;stroke-width:0.03;stroke-linecap:butt;stroke-linejoin:miter;stroke-miterlimit:10;stroke-dasharray:none;stroke-opacity:1"/>
	<path id="path343" d="M 343.00639139000003,344.35753889 L 366.26961257,322.6677 Z" style="fill:none;stroke:#000000;stroke-width:0.03;stroke-linecap:butt;stroke-linejoin:miter;stroke-miterlimit:10;stroke-dasharray:none;stroke-opacity:1"/>
	<path id="path352" d="M 414.89501743,495.48283889 L 462.64725389,344.35753889 Z" style="fill:none;stroke:#000000;stroke-width:0.03;stroke-linecap:butt;stroke-linejoin:miter;stroke-miterlimit:10;stroke-dasharray:none;stroke-opacity:1"/>
	<path id="path361" d="M 414.89501743,344.35753889 L 462.64725389,322.6677 Z" style="fill:none;stroke:#000000;stroke-width:0.03;stroke-linecap:butt;stroke-linejoin:miter;stroke-miterlimit:10;stroke-dasharray:none;stroke-opacity:1"/>
	<path id="path370" d="M 366.26961257,379.68895486 L 414.89501743,322.6677 Z" style="fill:none;stroke:#000000;stroke-width:0.03;stroke-linecap:butt;stroke-linejoin:miter;stroke-miterlimit:10;stroke-dasharray:none;stroke-opacity:1"/>
</svg>
