<?xml version="1.0" ?>
<svg xmlns="http://www.w3.org/2000/svg" width="816.0" height="2112.0" viewBox="0.0 0.0 816.0 2112.0">
	<path id="path32" d="M 258.299,483.30847293709996 L 258.299,480.8452728121 L 528.8411372492001,480.8452728121 L 528.8411372492001,483.30847293709996 Z" style="fill:#f5f5dc;fill-opacity:1;fill-rule:evenodd;stroke:#000000;stroke-width:0.005"/>
	<path id="path37" d="M 258.299,283.3774157512 L 258.299,280.91421562619996 L 528.8411372492001,280.91421562619996 L 528.8411372492001,283.3774157512 Z" style="fill:#f5f5dc;fill-opacity:1;fill-rule:evenodd;stroke:#000000;stroke-width:0.005"/>
	<path id="path42" d="M 258.299,285.8406158762 L 258.299,283.3774157512 L 528.8411372492001,283.3774157512 L 528.8411372492001,285.8406158762 Z" style="fill:#f5f5dc;fill-opacity:1;fill-rule:evenodd;stroke:#000000;stroke-width:0.005"/>
	<path id="path47" d="M 258.299,577.046046334 L 528.8411372492001,577.046046334 L 528.8411372492001,586.0790938324 L 258.299,586.0790938324 Z" style="fill:#f5f5dc;fill-opacity:1;fill-rule:evenodd;stroke:#000000;stroke-width:0.005"/>
	<path id="path52" d="M 258.299,577.046046334 L 258.299,577.046046334 L 258.299,586.0790938324 L 258.299,586.0790938324 Z" style="fill:#6495ed;fill-opacity:1;fill-rule:evenodd;stroke:#000000;stroke-width:0.005"/>
	<path id="path55" d="M 528.8411372492001,577.046046334 L 528.8411372492001,577.046046334 L 528.8411372492001,586.0790938324 L 528.8411372492001,586.0790938324 Z" style="fill:#6495ed;fill-opacity:1;fill-rule:evenodd;stroke:#000000;stroke-width:0.005"/>
	<path id="path58" d="M 261.0696075006,577.046046334 L 261.0696075006,586.0790938324 L 263.53280762559996,586.0790938324 L 263.53280762559996,577.046046334 Z" style="fill:#daa520;fill-opacity:1;fill-rule:evenodd;stroke:#000000;stroke-width:0.005"/>
	<path id="path65" d="M 263.53280762559996,577.046046334 L 263.53280762559996,586.0790938324 L 265.9960077506,586.0790938324 L 265.9960077506,577.046046334 Z" style="fill:#daa520;fill-opacity:1;fill-rule:evenodd;stroke:#000000;stroke-width:0.005"/>
	<path id="path72" d="M 265.9960077506,577.046046334 L 265.9960077506,586.0790938324 L 268.4592078756,586.0790938324 L 268.4592078756,577.046046334 Z" style="fill:#daa520;fill-opacity:1;fill-rule:evenodd;stroke:#000000;stroke-width:0.005"/>
	<path id="path79" d="M 258.299,577.046046334 L 258.299,586.0790938324 L 260.762200125,586.0790938324 L 260.762200125,577.046046334 Z" style="fill:#90ee90;fill-opacity:1;fill-rule:evenodd;stroke:#000000;stroke-width:0.005"/>
	<path id="path86" d="M 526.3779371242,577.046046334 L 526.3779371242,586.0790938324 L 528.8411372492001,586.0790938324 L 528.8411372492001,577.046046334 Z" style="fill:#90ee90;fill-opacity:1;fill-rule:evenodd;stroke:#000000;stroke-width:0.005"/>
	<path id="path93" d="M 271.0248771258,577.046046334 L 271.0248771258,586.0790938324 L 273.48807725079996,586.0790938324 L 273.48807725079996,577.046046334 Z" style="fill:#90ee90;fill-opacity:1;fill-rule:evenodd;stroke:#000000;stroke-width:0.005"/>
	<path id="path100" d="M 297.30032549919997,577.046046334 L 297.30032549919997,586.0790938324 L 299.7635256242,586.0790938324 L 299.7635256242,577.046046334 Z" style="fill:#90ee90;fill-opacity:1;fill-rule:evenodd;stroke:#000000;stroke-width:0.005"/>
	<path id="path107" d="M 323.5738033125,577.046046334 L 323.5738033125,586.0790938324 L 326.03700343749995,586.0790938324 L 326.03700343749995,577.046046334 Z" style="fill:#90ee90;fill-opacity:1;fill-rule:evenodd;stroke:#000000;stroke-width:0.005"/>
	<path id="path114" d="M 349.8472811258,577.046046334 L 349.8472811258,586.0790938324 L 352.31048125079997,586.0790938324 L 352.31048125079997,577.046046334 Z" style="fill:#90ee90;fill-opacity:1;fill-rule:evenodd;stroke:#000000;stroke-width:0.005"/>
	<path id="path121" d="M 376.1227294992,577.046046334 L 376.1227294992,586.0790938324 L 378.5859296242,586.0790938324 L 378.5859296242,577.046046334 Z" style="fill:#90ee90;fill-opacity:1;fill-rule:evenodd;stroke:#000000;stroke-width:0.005"/>
	<path id="path128" d="M 402.3962073125,577.046046334 L 402.3962073125,586.0790938324 L 404.85940743749995,586.0790938324 L 404.85940743749995,577.046046334 Z" style="fill:#90ee90;fill-opacity:1;fill-rule:evenodd;stroke:#000000;stroke-width:0.005"/>
	<path id="path135" d="M 428.6696851258,577.046046334 L 428.6696851258,586.0790938324 L 431.1328852508,586.0790938324 L 431.1328852508,577.046046334 Z" style="fill:#90ee90;fill-opacity:1;fill-rule:evenodd;stroke:#000000;stroke-width:0.005"/>
	<path id="path142" d="M 454.9451334992,577.046046334 L 454.9451334992,586.0790938324 L 457.4083336242,586.0790938324 L 457.4083336242,577.046046334 Z" style="fill:#90ee90;fill-opacity:1;fill-rule:evenodd;stroke:#000000;stroke-width:0.005"/>
	<path id="path149" d="M 481.2186113125,577.046046334 L 481.2186113125,586.0790938324 L 483.68181143749996,586.0790938324 L 483.68181143749996,577.046046334 Z" style="fill:#90ee90;fill-opacity:1;fill-rule:evenodd;stroke:#000000;stroke-width:0.005"/>
	<path id="path156" d="M 507.4920891258,577.046046334 L 507.4920891258,586.0790938324 L 509.9552892508,586.0790938324 L 509.9552892508,577.046046334 Z" style="fill:#90ee90;fill-opacity:1;fill-rule:evenodd;stroke:#000000;stroke-width:0.005"/>
	<path id="path163" d="M 256.6575234367,587.7205703957 L 256.6575234367,591.0054940824 L 247.62447593829998,591.0054940824 L 247.62447593829998,587.7205703957 Z" style="fill:#f5f5dc;fill-opacity:1;fill-rule:evenodd;stroke:#000000;stroke-width:0.005"/>
	<path id="path183" d="M 261.0696075006,480.8452728121 L 261.0696075006,285.8406158762 L 263.53280762559996,285.8406158762 L 263.53280762559996,480.84527281209995 Z" style="fill:#daa520;fill-opacity:1;fill-rule:evenodd;stroke:#000000;stroke-width:0.005"/>
	<path id="path188" d="M 263.53280762559996,480.8452728121 L 263.53280762559996,285.8406158762 L 265.9960077506,285.8406158762 L 265.9960077506,480.84527281209995 Z" style="fill:#daa520;fill-opacity:1;fill-rule:evenodd;stroke:#000000;stroke-width:0.005"/>
	<path id="path193" d="M 265.9960077506,480.8452728121 L 265.9960077506,285.8406158762 L 268.4592078756,285.8406158762 L 268.4592078756,480.84527281209995 Z" style="fill:#daa520;fill-opacity:1;fill-rule:evenodd;stroke:#000000;stroke-width:0.005"/>
	<path id="path198" d="M 258.299,480.8452728121 L 258.299,285.8406158762 L 260.762200125,285.8406158762 L 260.762200125,480.8452728121 Z" style="fill:#f5f5dc;fill-opacity:1;fill-rule:evenodd;stroke:#000000;stroke-width:0.005"/>
	<path id="path203" d="M 526.3779371242,480.8452728121 L 526.3779371242,285.8406158762 L 528.8411372492001,285.8406158762 L 528.8411372492001,480.84527281209995 Z" style="fill:#f5f5dc;fill-opacity:1;fill-rule:evenodd;stroke:#000000;stroke-width:0.005"/>
	<path id="path208" d="M 271.0248771258,480.8452728121 L 271.0248771258,285.8406158762 L 273.48807725079996,285.8406158762 L 273.48807725079996,480.84527281209995 Z" style="fill:#f5f5dc;fill-opacity:1;fill-rule:evenodd;stroke:#000000;stroke-width:0.005"/>
	<path id="path213" d="M 297.30032549919997,480.8452728121 L 297.30032549919997,285.8406158762 L 299.7635256242,285.8406158762 L 299.7635256242,480.84527281209995 Z" style="fill:#f5f5dc;fill-opacity:1;fill-rule:evenodd;stroke:#000000;stroke-width:0.005"/>
	<path id="path218" d="M 323.5738033125,480.8452728121 L 323.5738033125,285.8406158762 L 326.03700343749995,285.8406158762 L 326.03700343749995,480.84527281209995 Z" style="fill:#f5f5dc;fill-opacity:1;fill-rule:evenodd;stroke:#000000;stroke-width:0.005"/>
	<path id="path223" d="M 349.8472811258,480.8452728121 L 349.8472811258,285.8406158762 L 352.31048125079997,285.8406158762 L 352.31048125079997,480.84527281209995 Z" style="fill:#f5f5dc;fill-opacity:1;fill-rule:evenodd;stroke:#000000;stroke-width:0.005"/>
	<path id="path228" d="M 376.1227294992,480.8452728121 L 376.1227294992,285.8406158762 L 378.5859296242,285.8406158762 L 378.5859296242,480.84527281209995 Z" style="fill:#f5f5dc;fill-opacity:1;fill-rule:evenodd;stroke:#000000;stroke-width:0.005"/>
	<path id="path233" d="M 402.3962073125,480.8452728121 L 402.3962073125,285.8406158762 L 404.85940743749995,285.8406158762 L 404.85940743749995,480.84527281209995 Z" style="fill:#f5f5dc;fill-opacity:1;fill-rule:evenodd;stroke:#000000;stroke-width:0.005"/>
	<path id="path238" d="M 428.6696851258,480.8452728121 L 428.6696851258,285.8406158762 L 431.1328852508,285.8406158762 L 431.1328852508,480.84527281209995 Z" style="fill:#f5f5dc;fill-opacity:1;fill-rule:evenodd;stroke:#000000;stroke-width:0.005"/>
	<path id="path243" d="M 454.9451334992,480.8452728121 L 454.9451334992,285.8406158762 L 457.4083336242,285.8406158762 L 457.4083336242,480.84527281209995 Z" style="fill:#f5f5dc;fill-opacity:1;fill-rule:evenodd;stroke:#000000;stroke-width:0.005"/>
	<path id="path248" d="M 481.2186113125,480.8452728121 L 481.2186113125,285.8406158762 L 483.68181143749996,285.8406158762 L 483.68181143749996,480.84527281209995 Z" style="fill:#f5f5dc;fill-opacity:1;fill-rule:evenodd;stroke:#000000;stroke-width:0.005"/>
	<path id="path253" d="M 507.4920891258,480.8452728121 L 507.4920891258,285.8406158762 L 509.9552892508,285.8406158762 L 509.9552892508,480.84527281209995 Z" style="fill:#f5f5dc;fill-opacity:1;fill-rule:evenodd;stroke:#000000;stroke-width:0.005"/>
	<path id="path262" d="M 456.17673356169996,483.30847293709996 L 533.7675374992,305.95806393709995 Z" style="fill:none;stroke:#000000;stroke-width:0.025;stroke-linecap:butt;stroke-linejoin:miter;stroke-miterlimit:10;stroke-dasharray:none;stroke-opacity:1"/>
	<path id="path271" d="M 377.35432956169996,483.30847293709996 L 456.17673356169996,305.95806393709995 Z" style="fill:none;stroke:#000000;stroke-width:0.025;stroke-linecap:butt;stroke-linejoin:miter;stroke-miterlimit:10;stroke-dasharray:none;stroke-opacity:1"/>
	<path id="path272" d="M 377.35432956169996,305.95806393709995 L 456.17673356169996,483.30847293709996 Z" style="fill:none;stroke:#000000;stroke-width:0.025;stroke-linecap:butt;stroke-linejoin:miter;stroke-miterlimit:10;stroke-dasharray:none;stroke-opacity:1"/>
	<path id="path281" d="M 298.5319255617,483.30847293709996 L 377.3543295617,305.95806393709995 Z" style="fill:none;stroke:#000000;stroke-width:0.025;stroke-linecap:butt;stroke-linejoin:miter;stroke-miterlimit:10;stroke-dasharray:none;stroke-opacity:1"/>
	<path id="path282" d="M 298.5319255617,305.95806393709995 L 377.3543295617,483.30847293709996 Z" style="fill:none;stroke:#000000;stroke-width:0.025;stroke-linecap:butt;stroke-linejoin:miter;stroke-miterlimit:10;stroke-dasharray:none;stroke-opacity:1"/>
	<path id="path291" d="M 258.299,483.30847293709996 L 298.5319255617,305.95806393709995 Z" style="fill:none;stroke:#000000;stroke-width:0.025;stroke-linecap:butt;stroke-linejoin:miter;stroke-miterlimit:10;stroke-dasharray:none;stroke-opacity:1"/>
	<path id="path300" d="M 377.35432956169996,305.95806393709995 L 533.7675374992,282.76260099999996 Z" style="fill:none;stroke:#000000;stroke-width:0.025;stroke-linecap:butt;stroke-linejoin:miter;stroke-miterlimit:10;stroke-dasharray:none;stroke-opacity:1"/>
	<path id="path309" d="M 258.299,305.95806393709995 L 377.35432956169996,282.76260099999996 Z" style="fill:none;stroke:#000000;stroke-width:0.025;stroke-linecap:butt;stroke-linejoin:miter;stroke-miterlimit:10;stroke-dasharray:none;stroke-opacity:1"/>
</svg>
