<?xml version="1.0" ?>
<svg xmlns="http://www.w3.org/2000/svg" width="816.0" height="2112.0" viewBox="0.0 0.0 816.0 2112.0">
	<path id="path26" d="M 541.2854557,491.8981125 L 271.873,491.8981125 L 271.873,494.355 L 541.2854557,494.355 Z" style="fill:#f5f5dc;fill-opacity:1;fill-rule:evenodd;stroke:#000000;stroke-width:0.005"/>
	<path id="path31" d="M 541.2854557,315.61545162000004 L 262.86506767,315.61545162000004 L 262.86506767,318.07233912000004 L 541.2854557,318.07233912000004 Z" style="fill:#f5f5dc;fill-opacity:1;fill-rule:evenodd;stroke:#000000;stroke-width:0.005"/>
	<path id="path36" d="M 541.2854557,318.07233912000004 L 271.873,318.07233912000004 L 271.873,320.52922662000003 L 541.2854557,320.52922662000003 Z" style="fill:#f5f5dc;fill-opacity:1;fill-rule:evenodd;stroke:#000000;stroke-width:0.005"/>
	<path id="path41" d="M 541.2854557,587.03469303 L 271.873,587.03469303 L 271.873,578.0247951900001 L 541.2854557,578.0247951900001 Z" style="fill:#f5f5dc;fill-opacity:1;fill-rule:evenodd;stroke:#000000;stroke-width:0.005"/>
	<path id="path48" d="M 271.873,587.03469303 L 271.873,587.03469303 L 271.873,578.0247951900001 L 271.873,578.0247951900001 Z" style="fill:#6495ed;fill-opacity:1;fill-rule:evenodd;stroke:#000000;stroke-width:0.005"/>
	<path id="path51" d="M 541.2854557,587.03469303 L 541.2854557,578.0247951900001 L 538.8285682000001,578.0247951900001 L 538.8285682000001,587.03469303 Z" style="fill:#90ee90;fill-opacity:1;fill-rule:evenodd;stroke:#000000;stroke-width:0.005"/>
	<path id="path58" d="M 274.3298875,587.03469303 L 274.3298875,578.0247951900001 L 271.873,578.0247951900001 L 271.873,587.03469303 Z" style="fill:#90ee90;fill-opacity:1;fill-rule:evenodd;stroke:#000000;stroke-width:0.005"/>
	<path id="path65" d="M 288.66238641999996,587.03469303 L 288.66238641999996,578.0247951900001 L 286.20549891999997,578.0247951900001 L 286.20549891999997,587.03469303 Z" style="fill:#90ee90;fill-opacity:1;fill-rule:evenodd;stroke:#000000;stroke-width:0.005"/>
	<path id="path72" d="M 314.86853125,587.03469303 L 314.86853125,578.0247951900001 L 312.41164375,578.0247951900001 L 312.41164375,587.03469303 Z" style="fill:#90ee90;fill-opacity:1;fill-rule:evenodd;stroke:#000000;stroke-width:0.005"/>
	<path id="path79" d="M 341.07467608,587.03469303 L 341.07467608,578.0247951900001 L 338.61778858,578.0247951900001 L 338.61778858,587.03469303 Z" style="fill:#90ee90;fill-opacity:1;fill-rule:evenodd;stroke:#000000;stroke-width:0.005"/>
	<path id="path86" d="M 367.28278642,587.03469303 L 367.28278642,578.0247951900001 L 364.82589892,578.0247951900001 L 364.82589892,587.03469303 Z" style="fill:#90ee90;fill-opacity:1;fill-rule:evenodd;stroke:#000000;stroke-width:0.005"/>
	<path id="path93" d="M 393.48893125,587.03469303 L 393.48893125,578.0247951900001 L 391.03204375,578.0247951900001 L 391.03204375,587.03469303 Z" style="fill:#90ee90;fill-opacity:1;fill-rule:evenodd;stroke:#000000;stroke-width:0.005"/>
	<path id="path100" d="M 419.69507608000004,587.03469303 L 419.69507608000004,578.0247951900001 L 417.23818858000004,578.0247951900001 L 417.23818858000004,587.03469303 Z" style="fill:#90ee90;fill-opacity:1;fill-rule:evenodd;stroke:#000000;stroke-width:0.005"/>
	<path id="path107" d="M 445.90318642,587.03469303 L 445.90318642,578.0247951900001 L 443.44629892,578.0247951900001 L 443.44629892,587.03469303 Z" style="fill:#90ee90;fill-opacity:1;fill-rule:evenodd;stroke:#000000;stroke-width:0.005"/>
	<path id="path114" d="M 472.10933124999997,587.03469303 L 472.10933124999997,578.0247951900001 L 469.65244375,578.0247951900001 L 469.65244375,587.03469303 Z" style="fill:#90ee90;fill-opacity:1;fill-rule:evenodd;stroke:#000000;stroke-width:0.005"/>
	<path id="path121" d="M 498.31547608,587.03469303 L 498.31547608,578.0247951900001 L 495.85858858,578.0247951900001 L 495.85858858,587.03469303 Z" style="fill:#90ee90;fill-opacity:1;fill-rule:evenodd;stroke:#000000;stroke-width:0.005"/>
	<path id="path128" d="M 524.52358642,587.03469303 L 524.52358642,578.0247951900001 L 522.06669892,578.0247951900001 L 522.06669892,587.03469303 Z" style="fill:#90ee90;fill-opacity:1;fill-rule:evenodd;stroke:#000000;stroke-width:0.005"/>
	<path id="path135" d="M 545.4071301700001,587.03469303 L 545.4071301700001,591.9484680300001 L 536.39723233,591.9484680300001 L 536.39723233,587.03469303 Z" style="fill:#f5f5dc;fill-opacity:1;fill-rule:evenodd;stroke:#000000;stroke-width:0.005"/>
	<path id="path140" d="M 271.873,573.11102019 L 271.873,587.03469303 L 262.86506767,587.03469303 L 262.86506767,573.11102019 Z" style="fill:#f5f5dc;fill-opacity:1;fill-rule:evenodd;stroke:#000000;stroke-width:0.005"/>
	<path id="path157" d="M 541.2854557,491.8981125 L 541.2854557,320.52922662000003 L 538.8285682000001,320.52922662000003 L 538.8285682000001,491.8981125 Z" style="fill:#f5f5dc;fill-opacity:1;fill-rule:evenodd;stroke:#000000;stroke-width:0.005"/>
	<path id="path162" d="M 274.3298875,491.8981125 L 274.3298875,320.52922662000003 L 271.873,320.52922662000003 L 271.873,491.8981125 Z" style="fill:#f5f5dc;fill-opacity:1;fill-rule:evenodd;stroke:#000000;stroke-width:0.005"/>
	<path id="path167" d="M 288.66238641999996,491.8981125 L 288.66238641999996,320.52922662000003 L 286.20549891999997,320.52922662000003 L 286.20549891999997,491.8981125 Z" style="fill:#f5f5dc;fill-opacity:1;fill-rule:evenodd;stroke:#000000;stroke-width:0.005"/>
	<path id="path172" d="M 314.86853125,491.8981125 L 314.86853125,320.52922662000003 L 312.41164375,320.52922662000003 L 312.41164375,491.8981125 Z" style="fill:#f5f5dc;fill-opacity:1;fill-rule:evenodd;stroke:#000000;stroke-width:0.005"/>
	<path id="path177" d="M 341.07467608,491.8981125 L 341.07467608,320.52922662000003 L 338.61778858,320.52922662000003 L 338.61778858,491.8981125 Z" style="fill:#f5f5dc;fill-opacity:1;fill-rule:evenodd;stroke:#000000;stroke-width:0.005"/>
	<path id="path182" d="M 367.28278642,491.8981125 L 367.28278642,320.52922662000003 L 364.82589892,320.52922662000003 L 364.82589892,491.8981125 Z" style="fill:#f5f5dc;fill-opacity:1;fill-rule:evenodd;stroke:#000000;stroke-width:0.005"/>
	<path id="path187" d="M 393.48893125,491.8981125 L 393.48893125,320.52922662000003 L 391.03204375,320.52922662000003 L 391.03204375,491.8981125 Z" style="fill:#f5f5dc;fill-opacity:1;fill-rule:evenodd;stroke:#000000;stroke-width:0.005"/>
	<path id="path192" d="M 419.69507608000004,491.8981125 L 419.69507608000004,320.52922662000003 L 417.23818858000004,320.52922662000003 L 417.23818858000004,491.8981125 Z" style="fill:#f5f5dc;fill-opacity:1;fill-rule:evenodd;stroke:#000000;stroke-width:0.005"/>
	<path id="path197" d="M 445.90318642,491.8981125 L 445.90318642,320.52922662000003 L 443.44629892,320.52922662000003 L 443.44629892,491.8981125 Z" style="fill:#f5f5dc;fill-opacity:1;fill-rule:evenodd;stroke:#000000;stroke-width:0.005"/>
	<path id="path202" d="M 472.10933124999997,491.8981125 L 472.10933124999997,320.52922662000003 L 469.65244375,320.52922662000003 L 469.65244375,491.8981125 Z" style="fill:#f5f5dc;fill-opacity:1;fill-rule:evenodd;stroke:#000000;stroke-width:0.005"/>
	<path id="path207" d="M 498.31547608,491.8981125 L 498.31547608,320.52922662000003 L 495.85858858,320.52922662000003 L 495.85858858,491.8981125 Z" style="fill:#f5f5dc;fill-opacity:1;fill-rule:evenodd;stroke:#000000;stroke-width:0.005"/>
	<path id="path212" d="M 524.52358642,491.8981125 L 524.52358642,320.52922662000003 L 522.06669892,320.52922662000003 L 522.06669892,491.8981125 Z" style="fill:#f5f5dc;fill-opacity:1;fill-rule:evenodd;stroke:#000000;stroke-width:0.005"/>
	<path id="path221" d="M 541.2854557,317.45910000000003 L 470.8808875,494.355 Z" style="fill:none;stroke:#000000;stroke-width:0.025;stroke-linecap:butt;stroke-linejoin:miter;stroke-miterlimit:10;stroke-dasharray:none;stroke-opacity:1"/>
	<path id="path230" d="M 470.8808875,317.45910000000003 L 392.2604875,494.355 Z" style="fill:none;stroke:#000000;stroke-width:0.025;stroke-linecap:butt;stroke-linejoin:miter;stroke-miterlimit:10;stroke-dasharray:none;stroke-opacity:1"/>
	<path id="path231" d="M 392.2604875,317.45910000000003 L 470.8808875,494.355 Z" style="fill:none;stroke:#000000;stroke-width:0.025;stroke-linecap:butt;stroke-linejoin:miter;stroke-miterlimit:10;stroke-dasharray:none;stroke-opacity:1"/>
	<path id="path240" d="M 392.2604875,317.45910000000003 L 313.6400875,494.355 Z" style="fill:none;stroke:#000000;stroke-width:0.025;stroke-linecap:butt;stroke-linejoin:miter;stroke-miterlimit:10;stroke-dasharray:none;stroke-opacity:1"/>
	<path id="path241" d="M 313.6400875,317.45910000000003 L 392.2604875,494.355 Z" style="fill:none;stroke:#000000;stroke-width:0.025;stroke-linecap:butt;stroke-linejoin:miter;stroke-miterlimit:10;stroke-dasharray:none;stroke-opacity:1"/>
	<path id="path250" d="M 313.6400875,317.45910000000003 L 273.51026982999997,494.355 Z" style="fill:none;stroke:#000000;stroke-width:0.025;stroke-linecap:butt;stroke-linejoin:miter;stroke-miterlimit:10;stroke-dasharray:none;stroke-opacity:1"/>
</svg>
