<?xml version="1.0" ?>
<svg xmlns="http://www.w3.org/2000/svg" width="816.0" height="1056.0" viewBox="0.0 0.0 816.0 1056.0">
	<path id="path25" d="M 332.85699,525.6724781400001 L 332.85699,523.11455314 L 457.37063997999996,523.11455314 L 457.37063997999996,525.6724781400001 Z" style="fill:#f5f5dc;fill-opacity:1;fill-rule:evenodd;stroke:#000000;stroke-width:0.005"/>
	<path id="path30" d="M 342.23536622,328.17815840000003 L 342.23536622,325.6202334 L 457.37063997999996,325.6202334 L 457.37063997999996,328.17815840000003 Z" style="fill:#f5f5dc;fill-opacity:1;fill-rule:evenodd;stroke:#000000;stroke-width:0.005"/>
	<path id="path35" d="M 340.530765,330.7360834 L 340.530765,328.17815840000003 L 457.37063997999996,328.17815840000003 L 457.37063997999996,330.7360834 Z" style="fill:#f5f5dc;fill-opacity:1;fill-rule:evenodd;stroke:#000000;stroke-width:0.005"/>
	<path id="path40" d="M 332.85699,579.38890314 L 457.37063997999996,579.38890314 L 457.37063997999996,588.76727936 L 332.85699,588.76727936 Z" style="fill:#f5f5dc;fill-opacity:1;fill-rule:evenodd;stroke:#000000;stroke-width:0.005"/>
	<path id="path45" d="M 332.85699,579.38890314 L 332.85699,579.38890314 L 332.85699,588.76727936 L 332.85699,588.76727936 Z" style="fill:#6495ed;fill-opacity:1;fill-rule:evenodd;stroke:#000000;stroke-width:0.005"/>
	<path id="path50" d="M 340.530765,579.38890314 L 340.530765,588.76727936 L 343.08869,588.76727936 L 343.08869,579.38890314 Z" style="fill:#90ee90;fill-opacity:1;fill-rule:evenodd;stroke:#000000;stroke-width:0.005"/>
	<path id="path57" d="M 332.85699,579.38890314 L 332.85699,588.76727936 L 335.414915,588.76727936 L 335.414915,579.38890314 Z" style="fill:#90ee90;fill-opacity:1;fill-rule:evenodd;stroke:#000000;stroke-width:0.005"/>
	<path id="path63" d="M 337.97284,579.38890314 L 337.97284,588.76727936 L 340.530765,588.76727936 L 340.530765,579.38890314 Z" style="fill:#90ee90;fill-opacity:1;fill-rule:evenodd;stroke:#000000;stroke-width:0.005"/>
	<path id="path69" d="M 335.414915,579.38890314 L 335.414915,588.76727936 L 337.97284,588.76727936 L 337.97284,579.38890314 Z" style="fill:#90ee90;fill-opacity:1;fill-rule:evenodd;stroke:#000000;stroke-width:0.005"/>
	<path id="path75" d="M 454.81271498,579.38890314 L 454.81271498,588.76727936 L 457.37063997999996,588.76727936 L 457.37063997999996,579.38890314 Z" style="fill:#90ee90;fill-opacity:1;fill-rule:evenodd;stroke:#000000;stroke-width:0.005"/>
	<path id="path82" d="M 434.74835128,579.38890314 L 434.74835128,588.76727936 L 437.30627628,588.76727936 L 437.30627628,579.38890314 Z" style="fill:#90ee90;fill-opacity:1;fill-rule:evenodd;stroke:#000000;stroke-width:0.005"/>
	<path id="path89" d="M 407.46245372,579.38890314 L 407.46245372,588.76727936 L 410.02037872,588.76727936 L 410.02037872,579.38890314 Z" style="fill:#90ee90;fill-opacity:1;fill-rule:evenodd;stroke:#000000;stroke-width:0.005"/>
	<path id="path96" d="M 380.1786025,579.38890314 L 380.1786025,588.76727936 L 382.73652749999997,588.76727936 L 382.73652749999997,579.38890314 Z" style="fill:#90ee90;fill-opacity:1;fill-rule:evenodd;stroke:#000000;stroke-width:0.005"/>
	<path id="path103" d="M 352.89475128,579.38890314 L 352.89475128,588.76727936 L 355.45267628,588.76727936 L 355.45267628,579.38890314 Z" style="fill:#90ee90;fill-opacity:1;fill-rule:evenodd;stroke:#000000;stroke-width:0.005"/>
	<path id="path110" d="M 332.85699,593.88312936 L 332.85699,588.76727936 L 342.23536622,588.76727936 L 342.23536622,593.88312936 Z" style="fill:#f5f5dc;fill-opacity:1;fill-rule:evenodd;stroke:#000000;stroke-width:0.005"/>
	<path id="path129" d="M 340.530765,523.11455314 L 340.530765,330.7360834 L 343.08869,330.7360834 L 343.08869,523.11455314 Z" style="fill:#f5f5dc;fill-opacity:1;fill-rule:evenodd;stroke:#000000;stroke-width:0.005"/>
	<path id="path134" d="M 332.85699,523.11455314 L 332.85699,338.4098584 L 335.414915,338.4098584 L 335.414915,523.11455314 Z" style="fill:#f5f5dc;fill-opacity:1;fill-rule:evenodd;stroke:#000000;stroke-width:0.005"/>
	<path id="path139" d="M 337.97284,523.11455314 L 337.97284,338.4098584 L 340.530765,338.4098584 L 340.530765,523.11455314 Z" style="fill:#f5f5dc;fill-opacity:1;fill-rule:evenodd;stroke:#000000;stroke-width:0.005"/>
	<path id="path144" d="M 335.414915,523.11455314 L 335.414915,338.4098584 L 337.97284,338.4098584 L 337.97284,523.11455314 Z" style="fill:#f5f5dc;fill-opacity:1;fill-rule:evenodd;stroke:#000000;stroke-width:0.005"/>
	<path id="path149" d="M 454.81271498,523.11455314 L 454.81271498,330.7360834 L 457.37063997999996,330.7360834 L 457.37063997999996,523.11455314 Z" style="fill:#f5f5dc;fill-opacity:1;fill-rule:evenodd;stroke:#000000;stroke-width:0.005"/>
	<path id="path154" d="M 434.74835128,523.11455314 L 434.74835128,330.7360834 L 437.30627628,330.7360834 L 437.30627628,523.11455314 Z" style="fill:#f5f5dc;fill-opacity:1;fill-rule:evenodd;stroke:#000000;stroke-width:0.005"/>
	<path id="path159" d="M 407.46245372,523.11455314 L 407.46245372,330.7360834 L 410.02037872,330.7360834 L 410.02037872,523.11455314 Z" style="fill:#f5f5dc;fill-opacity:1;fill-rule:evenodd;stroke:#000000;stroke-width:0.005"/>
	<path id="path164" d="M 380.1786025,523.11455314 L 380.1786025,330.7360834 L 382.73652749999997,330.7360834 L 382.73652749999997,523.11455314 Z" style="fill:#f5f5dc;fill-opacity:1;fill-rule:evenodd;stroke:#000000;stroke-width:0.005"/>
	<path id="path169" d="M 352.89475128,523.11455314 L 352.89475128,330.7360834 L 355.45267628,330.7360834 L 355.45267628,523.11455314 Z" style="fill:#f5f5dc;fill-opacity:1;fill-rule:evenodd;stroke:#000000;stroke-width:0.005"/>
	<path id="path178" d="M 381.457565,525.6724781400001 L 457.37063997999996,341.50187814000003 Z" style="fill:none;stroke:#000000;stroke-width:0.024;stroke-linecap:butt;stroke-linejoin:miter;stroke-miterlimit:10;stroke-dasharray:none;stroke-opacity:1"/>
	<path id="path187" d="M 332.85699,525.6724781400001 L 381.457565,341.50187814000003 Z" style="fill:none;stroke:#000000;stroke-width:0.024;stroke-linecap:butt;stroke-linejoin:miter;stroke-miterlimit:10;stroke-dasharray:none;stroke-opacity:1"/>
	<path id="path196" d="M 332.85699,341.50187814000003 L 457.37063997999996,327.53970032 Z" style="fill:none;stroke:#000000;stroke-width:0.024;stroke-linecap:butt;stroke-linejoin:miter;stroke-miterlimit:10;stroke-dasharray:none;stroke-opacity:1"/>
</svg>
