<?xml version="1.0" ?>
<svg xmlns="http://www.w3.org/2000/svg" width="816.0" height="1056.0" viewBox="0.0 0.0 816.0 1056.0">
	<path id="path25" d="M 397.24399,526.3573539629 L 397.24399,523.5531790879 L 407.5252167617,523.5531790879 L 407.5252167617,526.3573539629 Z" style="fill:#f5f5dc;fill-opacity:1;fill-rule:evenodd;stroke:#000000;stroke-width:0.005"/>
	<path id="path30" d="M 397.24399,298.75033104880004 L 397.24399,295.9461561738 L 407.5252167617,295.9461561738 L 407.5252167617,298.75033104880004 Z" style="fill:#f5f5dc;fill-opacity:1;fill-rule:evenodd;stroke:#000000;stroke-width:0.005"/>
	<path id="path35" d="M 397.24399,301.5545059238 L 397.24399,298.75033104880004 L 407.5252167617,298.75033104880004 L 407.5252167617,301.5545059238 Z" style="fill:#f5f5dc;fill-opacity:1;fill-rule:evenodd;stroke:#000000;stroke-width:0.005"/>
	<path id="path40" d="M 397.24399,585.2450263379001 L 407.5252167617,585.2450263379001 L 407.5252167617,595.5262530996 L 397.24399,595.5262530996 Z" style="fill:#f5f5dc;fill-opacity:1;fill-rule:evenodd;stroke:#000000;stroke-width:0.005"/>
	<path id="path49" d="M 397.24399,585.2450263379001 L 397.24399,595.5262530996 L 400.048164875,595.5262530996 L 400.048164875,585.2450263379001 Z" style="fill:#90ee90;fill-opacity:1;fill-rule:evenodd;stroke:#000000;stroke-width:0.005"/>
	<path id="path56" d="M 404.7210418867,585.2450263379001 L 404.7210418867,595.5262530996 L 407.5252167617,595.5262530996 L 407.5252167617,585.2450263379001 Z" style="fill:#90ee90;fill-opacity:1;fill-rule:evenodd;stroke:#000000;stroke-width:0.005"/>
	<path id="path63" d="M 407.5252167617,595.5262530996 L 407.5252167617,601.1346028496 L 397.24399,601.1346028496 L 397.24399,595.5262530996 Z" style="fill:#f5f5dc;fill-opacity:1;fill-rule:evenodd;stroke:#000000;stroke-width:0.005"/>
	<path id="path70" d="M 397.24399,523.5531790879 L 397.24399,301.5545059238 L 400.048164875,301.5545059238 L 400.048164875,523.5531790879 Z" style="fill:#f5f5dc;fill-opacity:1;fill-rule:evenodd;stroke:#000000;stroke-width:0.005"/>
	<path id="path75" d="M 404.7210418867,523.5531790879 L 404.7210418867,301.5545059238 L 407.5252167617,301.5545059238 L 407.5252167617,523.5531790879 Z" style="fill:#f5f5dc;fill-opacity:1;fill-rule:evenodd;stroke:#000000;stroke-width:0.005"/>
	<path id="path84" d="M 397.24399,526.3573539629 L 407.5252167617,324.45676296290003 Z" style="fill:none;stroke:#000000;stroke-width:0.022;stroke-linecap:butt;stroke-linejoin:miter;stroke-miterlimit:10;stroke-dasharray:none;stroke-opacity:1"/>
	<path id="path93" d="M 397.24399,324.45676296290003 L 407.5252167617,298.050409 Z" style="fill:none;stroke:#000000;stroke-width:0.022;stroke-linecap:butt;stroke-linejoin:miter;stroke-miterlimit:10;stroke-dasharray:none;stroke-opacity:1"/>
	<path id="path102" d="M 397.24399,526.3573539629 L 407.5252167617,324.45676296290003 Z" style="fill:none;stroke:#000000;stroke-width:0.022;stroke-linecap:butt;stroke-linejoin:miter;stroke-miterlimit:10;stroke-dasharray:none;stroke-opacity:1"/>
	<path id="path111" d="M 397.24399,324.45676296290003 L 407.5252167617,298.050409 Z" style="fill:none;stroke:#000000;stroke-width:0.022;stroke-linecap:butt;stroke-linejoin:miter;stroke-miterlimit:10;stroke-dasharray:none;stroke-opacity:1"/>
</svg>
